<mxfile host="drawio-plugin" modified="2024-03-12T14:01:13.347Z" agent="5.0 (Windows NT 10.0; Win64; x64) AppleWebKit/537.36 (KHTML, like Gecko) Chrome/111.0.0.0 Safari/537.36" etag="LxWurvir7t1mre5g8nmv" version="20.5.3" type="embed"><diagram id="23iRSUPoRavnBvh4doch" name="Page-1"><mxGraphModel dx="771" dy="1000" grid="1" gridSize="10" guides="1" tooltips="1" connect="1" arrows="1" fold="1" page="1" pageScale="1" pageWidth="827" pageHeight="1169" math="0" shadow="0"><root><mxCell id="0"/><mxCell id="1" parent="0"/><mxCell id="2" value="&lt;p style=&quot;margin:0px;margin-top:4px;text-align:center;&quot;&gt;&lt;i&gt;&amp;lt;&amp;lt;Interface&amp;gt;&amp;gt;&lt;/i&gt;&lt;br&gt;&lt;b&gt;Computer&lt;/b&gt;&lt;/p&gt;&lt;hr size=&quot;1&quot;&gt;&lt;p style=&quot;margin:0px;margin-left:4px;&quot;&gt;+ turnOn ()&lt;br style=&quot;padding: 0px; margin: 0px;&quot;&gt;+ turnOff ()&lt;br style=&quot;padding: 0px; margin: 0px;&quot;&gt;+ start (program: Program)&lt;br style=&quot;padding: 0px; margin: 0px;&quot;&gt;+ run (program: Program)&lt;br style=&quot;padding: 0px; margin: 0px;&quot;&gt;+ close (program: Program)&lt;br style=&quot;padding: 0px; margin: 0px;&quot;&gt;+ install (program: Program)&lt;br style=&quot;padding: 0px; margin: 0px;&quot;&gt;+ uninstall (program: Program)&lt;br style=&quot;padding: 0px; margin: 0px;&quot;&gt;+ putProcessor (processor: Processor)&lt;br style=&quot;padding: 0px; margin: 0px;&quot;&gt;+ popProcessor ()&lt;br style=&quot;padding: 0px; margin: 0px;&quot;&gt;+ putMemoy (memories: Memories)&lt;br style=&quot;padding: 0px; margin: 0px;&quot;&gt;+ popMemoy ()&lt;br style=&quot;padding: 0px; margin: 0px;&quot;&gt;+ putDrive(drive: Drive)&lt;br style=&quot;padding: 0px; margin: 0px;&quot;&gt;+ popDrive()&lt;br style=&quot;padding: 0px; margin: 0px;&quot;&gt;+ putVideoCard(videoCard: VideoCard)&lt;br style=&quot;padding: 0px; margin: 0px;&quot;&gt;+ popVideoCard()&lt;br&gt;&lt;/p&gt;" style="verticalAlign=top;align=left;overflow=fill;fontSize=12;fontFamily=Helvetica;html=1;" parent="1" vertex="1"><mxGeometry x="480" y="20" width="230" height="270" as="geometry"/></mxCell><mxCell id="3" value="RealComputer" style="swimlane;fontStyle=1;align=center;verticalAlign=top;childLayout=stackLayout;horizontal=1;startSize=26;horizontalStack=0;resizeParent=1;resizeParentMax=0;resizeLast=0;collapsible=1;marginBottom=0;" parent="1" vertex="1"><mxGeometry x="80" y="80" width="230" height="340" as="geometry"/></mxCell><mxCell id="4" value="# processor: Processor&#10;# memories: List&lt;Memory&gt;&#10;# drives: List&lt;Drive&gt;&#10;# videoCards: List&lt;VideoCard&gt;&#10;# programs: List&lt;Programs&gt;" style="text;strokeColor=none;fillColor=none;align=left;verticalAlign=top;spacingLeft=4;spacingRight=4;overflow=hidden;rotatable=0;points=[[0,0.5],[1,0.5]];portConstraint=eastwest;" parent="3" vertex="1"><mxGeometry y="26" width="230" height="84" as="geometry"/></mxCell><mxCell id="5" value="" style="line;strokeWidth=1;fillColor=none;align=left;verticalAlign=middle;spacingTop=-1;spacingLeft=3;spacingRight=3;rotatable=0;labelPosition=right;points=[];portConstraint=eastwest;strokeColor=inherit;" parent="3" vertex="1"><mxGeometry y="110" width="230" height="8" as="geometry"/></mxCell><mxCell id="6" value="+ turnOn ()&#10;+ turnOff ()&#10;+ start (program: Program)&#10;+ run (program: Program)&#10;+ close (program: Program)&#10;+ install (program: Program)&#10;+ uninstall (program: Program)&#10;+ putProcessor (processor: Processor)&#10;+ popProcessor ()&#10;+ putMemoy (memories: Memories)&#10;+ popMemoy ()&#10;+ putDrive(drive: Drive)&#10;+ popDrive()&#10;+ putVideoCard(videoCard: VideoCard)&#10;+ popVideoCard()" style="text;strokeColor=none;fillColor=none;align=left;verticalAlign=top;spacingLeft=4;spacingRight=4;overflow=hidden;rotatable=0;points=[[0,0.5],[1,0.5]];portConstraint=eastwest;" parent="3" vertex="1"><mxGeometry y="118" width="230" height="222" as="geometry"/></mxCell><mxCell id="8" value="" style="endArrow=block;dashed=1;endFill=0;endSize=12;html=1;rounded=0;exitX=0.5;exitY=0;exitDx=0;exitDy=0;" parent="1" source="3" edge="1"><mxGeometry width="160" relative="1" as="geometry"><mxPoint x="340" y="310" as="sourcePoint"/><mxPoint x="480" y="40" as="targetPoint"/><Array as="points"><mxPoint x="195" y="40"/></Array></mxGeometry></mxCell><mxCell id="9" value="&lt;p style=&quot;margin:0px;margin-top:4px;text-align:center;&quot;&gt;&lt;i&gt;&amp;lt;&amp;lt;Interface&amp;gt;&amp;gt;&lt;/i&gt;&lt;br&gt;&lt;b&gt;Proccesor&lt;/b&gt;&lt;/p&gt;&lt;hr size=&quot;1&quot;&gt;&lt;p style=&quot;margin:0px;margin-left:4px;&quot;&gt;+ execute(program: Program): boolean&lt;br&gt;&lt;br&gt;&lt;/p&gt;" style="verticalAlign=top;align=left;overflow=fill;fontSize=12;fontFamily=Helvetica;html=1;" parent="1" vertex="1"><mxGeometry x="480" y="320" width="230" height="70" as="geometry"/></mxCell><mxCell id="10" value="AbstractProcessor" style="swimlane;fontStyle=3;align=center;verticalAlign=top;childLayout=stackLayout;horizontal=1;startSize=26;horizontalStack=0;resizeParent=1;resizeParentMax=0;resizeLast=0;collapsible=1;marginBottom=0;" parent="1" vertex="1"><mxGeometry x="960" y="320" width="170" height="124" as="geometry"/></mxCell><mxCell id="11" value="# codeName: String&#10;# frequency: long&#10;# transistors: long&#10;# cores: int" style="text;strokeColor=none;fillColor=none;align=left;verticalAlign=top;spacingLeft=4;spacingRight=4;overflow=hidden;rotatable=0;points=[[0,0.5],[1,0.5]];portConstraint=eastwest;" parent="10" vertex="1"><mxGeometry y="26" width="170" height="64" as="geometry"/></mxCell><mxCell id="12" value="" style="line;strokeWidth=1;fillColor=none;align=left;verticalAlign=middle;spacingTop=-1;spacingLeft=3;spacingRight=3;rotatable=0;labelPosition=right;points=[];portConstraint=eastwest;strokeColor=inherit;" parent="10" vertex="1"><mxGeometry y="90" width="170" height="8" as="geometry"/></mxCell><mxCell id="13" value="+ execute(program): boolean" style="text;strokeColor=none;fillColor=none;align=left;verticalAlign=top;spacingLeft=4;spacingRight=4;overflow=hidden;rotatable=0;points=[[0,0.5],[1,0.5]];portConstraint=eastwest;" parent="10" vertex="1"><mxGeometry y="98" width="170" height="26" as="geometry"/></mxCell><mxCell id="14" value="" style="endArrow=block;dashed=1;endFill=0;endSize=12;html=1;rounded=0;exitX=0.001;exitY=0.406;exitDx=0;exitDy=0;entryX=1;entryY=0.75;entryDx=0;entryDy=0;exitPerimeter=0;" parent="1" source="11" target="9" edge="1"><mxGeometry width="160" relative="1" as="geometry"><mxPoint x="640" y="430" as="sourcePoint"/><mxPoint x="800" y="430" as="targetPoint"/></mxGeometry></mxCell><mxCell id="15" value="IntelProcessor" style="swimlane;fontStyle=1;align=center;verticalAlign=top;childLayout=stackLayout;horizontal=1;startSize=52;horizontalStack=0;resizeParent=1;resizeParentMax=0;resizeLast=0;collapsible=1;marginBottom=0;" parent="1" vertex="1"><mxGeometry x="1280" y="320" width="160" height="30" as="geometry"/></mxCell><mxCell id="23" value="Extends" style="endArrow=block;endSize=16;endFill=0;html=1;rounded=0;entryX=1;entryY=0.5;entryDx=0;entryDy=0;exitX=0;exitY=0.5;exitDx=0;exitDy=0;" parent="1" source="27" target="11" edge="1"><mxGeometry width="160" relative="1" as="geometry"><mxPoint x="1480" y="280" as="sourcePoint"/><mxPoint x="1030" y="300" as="targetPoint"/></mxGeometry></mxCell><mxCell id="25" value="Extends" style="endArrow=block;endSize=16;endFill=0;html=1;rounded=0;exitX=0;exitY=0.5;exitDx=0;exitDy=0;entryX=0.999;entryY=0.116;entryDx=0;entryDy=0;entryPerimeter=0;" parent="1" source="15" target="10" edge="1"><mxGeometry width="160" relative="1" as="geometry"><mxPoint x="1080" y="330" as="sourcePoint"/><mxPoint x="1130" y="330" as="targetPoint"/></mxGeometry></mxCell><mxCell id="27" value="AmdProcessor" style="swimlane;fontStyle=1;align=center;verticalAlign=top;childLayout=stackLayout;horizontal=1;startSize=52;horizontalStack=0;resizeParent=1;resizeParentMax=0;resizeLast=0;collapsible=1;marginBottom=0;" parent="1" vertex="1"><mxGeometry x="1280" y="363" width="160" height="30" as="geometry"/></mxCell><mxCell id="45" value="&lt;p style=&quot;margin:0px;margin-top:4px;text-align:center;&quot;&gt;&lt;i&gt;&amp;lt;&amp;lt;Interface&amp;gt;&amp;gt;&lt;/i&gt;&lt;br&gt;&lt;b&gt;Memory&lt;/b&gt;&lt;/p&gt;&lt;hr size=&quot;1&quot;&gt;&lt;p style=&quot;margin:0px;margin-left:4px;&quot;&gt;+ load(data: String): boolean&lt;/p&gt;&lt;p style=&quot;margin:0px;margin-left:4px;&quot;&gt;+ unload(data:String): boolean&lt;/p&gt;" style="verticalAlign=top;align=left;overflow=fill;fontSize=12;fontFamily=Helvetica;html=1;" parent="1" vertex="1"><mxGeometry x="480" y="480" width="180" height="80" as="geometry"/></mxCell><mxCell id="46" value="AbstractMemory" style="swimlane;fontStyle=3;align=center;verticalAlign=top;childLayout=stackLayout;horizontal=1;startSize=26;horizontalStack=0;resizeParent=1;resizeParentMax=0;resizeLast=0;collapsible=1;marginBottom=0;" parent="1" vertex="1"><mxGeometry x="960" y="480" width="170" height="120" as="geometry"/></mxCell><mxCell id="47" value="# frequency: long&#10;# capacity: long" style="text;strokeColor=none;fillColor=none;align=left;verticalAlign=top;spacingLeft=4;spacingRight=4;overflow=hidden;rotatable=0;points=[[0,0.5],[1,0.5]];portConstraint=eastwest;" parent="46" vertex="1"><mxGeometry y="26" width="170" height="44" as="geometry"/></mxCell><mxCell id="48" value="" style="line;strokeWidth=1;fillColor=none;align=left;verticalAlign=middle;spacingTop=-1;spacingLeft=3;spacingRight=3;rotatable=0;labelPosition=right;points=[];portConstraint=eastwest;strokeColor=inherit;" parent="46" vertex="1"><mxGeometry y="70" width="170" height="8" as="geometry"/></mxCell><mxCell id="49" value="+ load(data: String): boolean&#10;+ unload(data:String): boolean" style="text;strokeColor=none;fillColor=none;align=left;verticalAlign=top;spacingLeft=4;spacingRight=4;overflow=hidden;rotatable=0;points=[[0,0.5],[1,0.5]];portConstraint=eastwest;" parent="46" vertex="1"><mxGeometry y="78" width="170" height="42" as="geometry"/></mxCell><mxCell id="50" value="" style="endArrow=block;dashed=1;endFill=0;endSize=12;html=1;rounded=0;exitX=0;exitY=0.5;exitDx=0;exitDy=0;entryX=0.996;entryY=0.594;entryDx=0;entryDy=0;entryPerimeter=0;" parent="1" source="47" target="45" edge="1"><mxGeometry width="160" relative="1" as="geometry"><mxPoint x="640" y="590" as="sourcePoint"/><mxPoint x="800" y="590" as="targetPoint"/></mxGeometry></mxCell><mxCell id="51" value="DDR4Memory" style="swimlane;fontStyle=1;align=center;verticalAlign=top;childLayout=stackLayout;horizontal=1;startSize=52;horizontalStack=0;resizeParent=1;resizeParentMax=0;resizeLast=0;collapsible=1;marginBottom=0;" parent="1" vertex="1"><mxGeometry x="1280" y="480" width="160" height="30" as="geometry"/></mxCell><mxCell id="52" value="Extends" style="endArrow=block;endSize=16;endFill=0;html=1;rounded=0;entryX=1.01;entryY=0.657;entryDx=0;entryDy=0;exitX=0;exitY=0.5;exitDx=0;exitDy=0;entryPerimeter=0;" parent="1" source="54" target="47" edge="1"><mxGeometry width="160" relative="1" as="geometry"><mxPoint x="1480" y="440" as="sourcePoint"/><mxPoint x="1030" y="460" as="targetPoint"/></mxGeometry></mxCell><mxCell id="53" value="Extends" style="endArrow=block;endSize=16;endFill=0;html=1;rounded=0;exitX=0;exitY=0.5;exitDx=0;exitDy=0;entryX=0.997;entryY=0.129;entryDx=0;entryDy=0;entryPerimeter=0;" parent="1" source="51" target="46" edge="1"><mxGeometry width="160" relative="1" as="geometry"><mxPoint x="1080" y="490" as="sourcePoint"/><mxPoint x="1280" y="440" as="targetPoint"/></mxGeometry></mxCell><mxCell id="54" value="DDR5Memory" style="swimlane;fontStyle=1;align=center;verticalAlign=top;childLayout=stackLayout;horizontal=1;startSize=52;horizontalStack=0;resizeParent=1;resizeParentMax=0;resizeLast=0;collapsible=1;marginBottom=0;" parent="1" vertex="1"><mxGeometry x="1280" y="520" width="160" height="30" as="geometry"/></mxCell><mxCell id="58" value="&lt;p style=&quot;margin:0px;margin-top:4px;text-align:center;&quot;&gt;&lt;i&gt;&amp;lt;&amp;lt;Interface&amp;gt;&amp;gt;&lt;/i&gt;&lt;br&gt;&lt;b&gt;Drive&lt;/b&gt;&lt;/p&gt;&lt;hr size=&quot;1&quot;&gt;&lt;p style=&quot;margin:0px;margin-left:4px;&quot;&gt;+ read(data: String): boolean&lt;/p&gt;&lt;p style=&quot;margin:0px;margin-left:4px;&quot;&gt;+ write(data:String): boolean&lt;/p&gt;&lt;p style=&quot;margin:0px;margin-left:4px;&quot;&gt;+ delete(data:String): boolean&lt;br&gt;&lt;/p&gt;" style="verticalAlign=top;align=left;overflow=fill;fontSize=12;fontFamily=Helvetica;html=1;" parent="1" vertex="1"><mxGeometry x="480" y="640" width="180" height="100" as="geometry"/></mxCell><mxCell id="59" value="AbstractDrive" style="swimlane;fontStyle=3;align=center;verticalAlign=top;childLayout=stackLayout;horizontal=1;startSize=26;horizontalStack=0;resizeParent=1;resizeParentMax=0;resizeLast=0;collapsible=1;marginBottom=0;" parent="1" vertex="1"><mxGeometry x="960" y="640" width="170" height="130" as="geometry"/></mxCell><mxCell id="60" value="# manufacturer: String&#10;# capacity: long" style="text;strokeColor=none;fillColor=none;align=left;verticalAlign=top;spacingLeft=4;spacingRight=4;overflow=hidden;rotatable=0;points=[[0,0.5],[1,0.5]];portConstraint=eastwest;" parent="59" vertex="1"><mxGeometry y="26" width="170" height="44" as="geometry"/></mxCell><mxCell id="61" value="" style="line;strokeWidth=1;fillColor=none;align=left;verticalAlign=middle;spacingTop=-1;spacingLeft=3;spacingRight=3;rotatable=0;labelPosition=right;points=[];portConstraint=eastwest;strokeColor=inherit;" parent="59" vertex="1"><mxGeometry y="70" width="170" height="8" as="geometry"/></mxCell><mxCell id="62" value="+ read(data: String): boolean&#10;+ write(data:String): boolean&#10;+ delete(data: String): boolean" style="text;strokeColor=none;fillColor=none;align=left;verticalAlign=top;spacingLeft=4;spacingRight=4;overflow=hidden;rotatable=0;points=[[0,0.5],[1,0.5]];portConstraint=eastwest;" parent="59" vertex="1"><mxGeometry y="78" width="170" height="52" as="geometry"/></mxCell><mxCell id="63" value="" style="endArrow=block;dashed=1;endFill=0;endSize=12;html=1;rounded=0;exitX=-0.006;exitY=0.331;exitDx=0;exitDy=0;exitPerimeter=0;" parent="1" source="60" edge="1"><mxGeometry width="160" relative="1" as="geometry"><mxPoint x="640" y="750" as="sourcePoint"/><mxPoint x="660" y="680" as="targetPoint"/></mxGeometry></mxCell><mxCell id="64" value="HDDDrive" style="swimlane;fontStyle=1;align=center;verticalAlign=top;childLayout=stackLayout;horizontal=1;startSize=52;horizontalStack=0;resizeParent=1;resizeParentMax=0;resizeLast=0;collapsible=1;marginBottom=0;" parent="1" vertex="1"><mxGeometry x="1280" y="640" width="160" height="30" as="geometry"/></mxCell><mxCell id="65" value="Extends" style="endArrow=block;endSize=16;endFill=0;html=1;rounded=0;entryX=1.01;entryY=0.657;entryDx=0;entryDy=0;exitX=0;exitY=0.5;exitDx=0;exitDy=0;entryPerimeter=0;" parent="1" source="67" target="60" edge="1"><mxGeometry width="160" relative="1" as="geometry"><mxPoint x="1480" y="600" as="sourcePoint"/><mxPoint x="1030" y="620" as="targetPoint"/></mxGeometry></mxCell><mxCell id="66" value="Extends" style="endArrow=block;endSize=16;endFill=0;html=1;rounded=0;exitX=0;exitY=0.5;exitDx=0;exitDy=0;entryX=0.997;entryY=0.129;entryDx=0;entryDy=0;entryPerimeter=0;" parent="1" source="64" target="59" edge="1"><mxGeometry width="160" relative="1" as="geometry"><mxPoint x="1080" y="650" as="sourcePoint"/><mxPoint x="1280" y="600" as="targetPoint"/></mxGeometry></mxCell><mxCell id="67" value="SSDDrive" style="swimlane;fontStyle=1;align=center;verticalAlign=top;childLayout=stackLayout;horizontal=1;startSize=52;horizontalStack=0;resizeParent=1;resizeParentMax=0;resizeLast=0;collapsible=1;marginBottom=0;" parent="1" vertex="1"><mxGeometry x="1280" y="680" width="160" height="30" as="geometry"/></mxCell><mxCell id="68" value="NVMeDrive" style="swimlane;fontStyle=1;align=center;verticalAlign=top;childLayout=stackLayout;horizontal=1;startSize=52;horizontalStack=0;resizeParent=1;resizeParentMax=0;resizeLast=0;collapsible=1;marginBottom=0;" parent="1" vertex="1"><mxGeometry x="1280" y="720" width="160" height="30" as="geometry"/></mxCell><mxCell id="69" value="Extends" style="endArrow=block;endSize=16;endFill=0;html=1;rounded=0;entryX=0.996;entryY=0.376;entryDx=0;entryDy=0;exitX=0;exitY=0.5;exitDx=0;exitDy=0;entryPerimeter=0;" parent="1" source="68" target="62" edge="1"><mxGeometry width="160" relative="1" as="geometry"><mxPoint x="1210" y="705" as="sourcePoint"/><mxPoint x="1140" y="698" as="targetPoint"/></mxGeometry></mxCell><mxCell id="74" value="&lt;p style=&quot;margin:0px;margin-top:4px;text-align:center;&quot;&gt;&lt;i&gt;&amp;lt;&amp;lt;Interface&amp;gt;&amp;gt;&lt;/i&gt;&lt;br&gt;&lt;b&gt;VideoCard&lt;/b&gt;&lt;/p&gt;&lt;hr size=&quot;1&quot;&gt;&lt;p style=&quot;margin:0px;margin-left:4px;&quot;&gt;+ drawGraphic(): boolean&lt;/p&gt;&lt;p style=&quot;margin:0px;margin-left:4px;&quot;&gt;&lt;br&gt;&lt;/p&gt;" style="verticalAlign=top;align=left;overflow=fill;fontSize=12;fontFamily=Helvetica;html=1;" parent="1" vertex="1"><mxGeometry x="480" y="800" width="180" height="70" as="geometry"/></mxCell><mxCell id="75" value="AbstractVieoCard" style="swimlane;fontStyle=3;align=center;verticalAlign=top;childLayout=stackLayout;horizontal=1;startSize=26;horizontalStack=0;resizeParent=1;resizeParentMax=0;resizeLast=0;collapsible=1;marginBottom=0;" parent="1" vertex="1"><mxGeometry x="960" y="800" width="170" height="110" as="geometry"/></mxCell><mxCell id="76" value="# frequency: long&#10;# memory: long" style="text;strokeColor=none;fillColor=none;align=left;verticalAlign=top;spacingLeft=4;spacingRight=4;overflow=hidden;rotatable=0;points=[[0,0.5],[1,0.5]];portConstraint=eastwest;" parent="75" vertex="1"><mxGeometry y="26" width="170" height="44" as="geometry"/></mxCell><mxCell id="77" value="" style="line;strokeWidth=1;fillColor=none;align=left;verticalAlign=middle;spacingTop=-1;spacingLeft=3;spacingRight=3;rotatable=0;labelPosition=right;points=[];portConstraint=eastwest;strokeColor=inherit;" parent="75" vertex="1"><mxGeometry y="70" width="170" height="8" as="geometry"/></mxCell><mxCell id="78" value="+ drawGraphic(): void" style="text;strokeColor=none;fillColor=none;align=left;verticalAlign=top;spacingLeft=4;spacingRight=4;overflow=hidden;rotatable=0;points=[[0,0.5],[1,0.5]];portConstraint=eastwest;" parent="75" vertex="1"><mxGeometry y="78" width="170" height="32" as="geometry"/></mxCell><mxCell id="79" value="" style="endArrow=block;dashed=1;endFill=0;endSize=12;html=1;rounded=0;exitX=0;exitY=0.424;exitDx=0;exitDy=0;exitPerimeter=0;" parent="1" source="76" edge="1"><mxGeometry width="160" relative="1" as="geometry"><mxPoint x="640" y="910" as="sourcePoint"/><mxPoint x="660" y="840" as="targetPoint"/></mxGeometry></mxCell><mxCell id="80" value="NvidiaCard" style="swimlane;fontStyle=1;align=center;verticalAlign=top;childLayout=stackLayout;horizontal=1;startSize=52;horizontalStack=0;resizeParent=1;resizeParentMax=0;resizeLast=0;collapsible=1;marginBottom=0;" parent="1" vertex="1"><mxGeometry x="1280" y="800" width="160" height="30" as="geometry"/></mxCell><mxCell id="81" value="Extends" style="endArrow=block;endSize=16;endFill=0;html=1;rounded=0;entryX=1.01;entryY=0.657;entryDx=0;entryDy=0;exitX=0;exitY=0.5;exitDx=0;exitDy=0;entryPerimeter=0;" parent="1" source="83" target="76" edge="1"><mxGeometry width="160" relative="1" as="geometry"><mxPoint x="1480" y="760" as="sourcePoint"/><mxPoint x="1030" y="780" as="targetPoint"/></mxGeometry></mxCell><mxCell id="82" value="Extends" style="endArrow=block;endSize=16;endFill=0;html=1;rounded=0;exitX=0;exitY=0.5;exitDx=0;exitDy=0;entryX=0.997;entryY=0.129;entryDx=0;entryDy=0;entryPerimeter=0;" parent="1" source="80" target="75" edge="1"><mxGeometry width="160" relative="1" as="geometry"><mxPoint x="1080" y="810" as="sourcePoint"/><mxPoint x="1280" y="760" as="targetPoint"/></mxGeometry></mxCell><mxCell id="83" value="RadeonCard" style="swimlane;fontStyle=1;align=center;verticalAlign=top;childLayout=stackLayout;horizontal=1;startSize=52;horizontalStack=0;resizeParent=1;resizeParentMax=0;resizeLast=0;collapsible=1;marginBottom=0;" parent="1" vertex="1"><mxGeometry x="1280" y="840" width="160" height="30" as="geometry"/></mxCell><mxCell id="89" value="&lt;p style=&quot;margin:0px;margin-top:4px;text-align:center;&quot;&gt;&lt;i&gt;&amp;lt;&amp;lt;Interface&amp;gt;&amp;gt;&lt;/i&gt;&lt;br&gt;&lt;b&gt;Program&lt;/b&gt;&lt;/p&gt;&lt;hr size=&quot;1&quot;&gt;&lt;p style=&quot;margin:0px;margin-left:4px;&quot;&gt;+ doAction(): boolean&lt;/p&gt;&lt;p style=&quot;margin:0px;margin-left:4px;&quot;&gt;&lt;br&gt;&lt;/p&gt;" style="verticalAlign=top;align=left;overflow=fill;fontSize=12;fontFamily=Helvetica;html=1;" parent="1" vertex="1"><mxGeometry x="480" y="960" width="180" height="70" as="geometry"/></mxCell><mxCell id="95" value="AbstractEditor" style="swimlane;fontStyle=3;align=center;verticalAlign=top;childLayout=stackLayout;horizontal=1;startSize=52;horizontalStack=0;resizeParent=1;resizeParentMax=0;resizeLast=0;collapsible=1;marginBottom=0;" parent="1" vertex="1"><mxGeometry x="1040" y="960" width="160" height="30" as="geometry"/></mxCell><mxCell id="98" value="Game" style="swimlane;fontStyle=1;align=center;verticalAlign=top;childLayout=stackLayout;horizontal=1;startSize=52;horizontalStack=0;resizeParent=1;resizeParentMax=0;resizeLast=0;collapsible=1;marginBottom=0;" parent="1" vertex="1"><mxGeometry x="1040" y="1000" width="160" height="30" as="geometry"/></mxCell><mxCell id="99" value="" style="endArrow=block;dashed=1;endFill=0;endSize=12;html=1;rounded=0;fontColor=default;exitX=0;exitY=0.5;exitDx=0;exitDy=0;entryX=0.993;entryY=0.2;entryDx=0;entryDy=0;entryPerimeter=0;" parent="1" source="144" target="89" edge="1"><mxGeometry width="160" relative="1" as="geometry"><mxPoint x="710" y="870" as="sourcePoint"/><mxPoint x="870" y="870" as="targetPoint"/><Array as="points"><mxPoint x="720" y="1008"/><mxPoint x="720" y="974"/></Array></mxGeometry></mxCell><mxCell id="100" value="Browser" style="swimlane;fontStyle=1;align=center;verticalAlign=top;childLayout=stackLayout;horizontal=1;startSize=52;horizontalStack=0;resizeParent=1;resizeParentMax=0;resizeLast=0;collapsible=1;marginBottom=0;" parent="1" vertex="1"><mxGeometry x="1040" y="1040" width="160" height="30" as="geometry"/></mxCell><mxCell id="124" value="1" style="endArrow=open;html=1;endSize=12;startArrow=diamondThin;startSize=14;startFill=1;edgeStyle=orthogonalEdgeStyle;align=left;verticalAlign=bottom;rounded=0;entryX=0;entryY=0.25;entryDx=0;entryDy=0;exitX=1;exitY=0.167;exitDx=0;exitDy=0;exitPerimeter=0;" parent="1" source="4" target="9" edge="1"><mxGeometry x="-1" y="3" relative="1" as="geometry"><mxPoint x="310" y="338" as="sourcePoint"/><mxPoint x="710" y="420" as="targetPoint"/><Array as="points"><mxPoint x="440" y="120"/><mxPoint x="440" y="338"/></Array></mxGeometry></mxCell><mxCell id="130" value="1" style="edgeLabel;html=1;align=center;verticalAlign=middle;resizable=0;points=[];" parent="124" vertex="1" connectable="0"><mxGeometry x="0.7989" relative="1" as="geometry"><mxPoint x="19" y="-7" as="offset"/></mxGeometry></mxCell><mxCell id="125" value="1" style="endArrow=open;html=1;endSize=12;startArrow=diamondThin;startSize=14;startFill=1;edgeStyle=orthogonalEdgeStyle;align=left;verticalAlign=bottom;rounded=0;entryX=0;entryY=0.25;entryDx=0;entryDy=0;" parent="1" source="4" target="45" edge="1"><mxGeometry x="-1" y="3" relative="1" as="geometry"><mxPoint x="570" y="350" as="sourcePoint"/><mxPoint x="730" y="350" as="targetPoint"/><Array as="points"><mxPoint x="420" y="148"/><mxPoint x="420" y="500"/></Array></mxGeometry></mxCell><mxCell id="131" value="1..*" style="edgeLabel;html=1;align=center;verticalAlign=middle;resizable=0;points=[];" parent="125" vertex="1" connectable="0"><mxGeometry x="0.9207" y="6" relative="1" as="geometry"><mxPoint x="-9" y="-4" as="offset"/></mxGeometry></mxCell><mxCell id="126" value="1" style="endArrow=open;html=1;endSize=12;startArrow=diamondThin;startSize=14;startFill=1;align=left;verticalAlign=bottom;rounded=0;exitX=1;exitY=0.881;exitDx=0;exitDy=0;exitPerimeter=0;entryX=0;entryY=0.25;entryDx=0;entryDy=0;" parent="1" source="4" target="58" edge="1"><mxGeometry x="-1" y="3" relative="1" as="geometry"><mxPoint x="570" y="370" as="sourcePoint"/><mxPoint x="730" y="370" as="targetPoint"/><Array as="points"><mxPoint x="400" y="180"/><mxPoint x="400" y="665"/></Array></mxGeometry></mxCell><mxCell id="132" value="1..*" style="edgeLabel;html=1;align=center;verticalAlign=middle;resizable=0;points=[];" parent="126" vertex="1" connectable="0"><mxGeometry x="0.9442" relative="1" as="geometry"><mxPoint x="-8" y="-10" as="offset"/></mxGeometry></mxCell><mxCell id="127" value="1" style="endArrow=open;html=1;endSize=12;startArrow=diamondThin;startSize=14;startFill=1;align=left;verticalAlign=bottom;rounded=0;entryX=0;entryY=0.25;entryDx=0;entryDy=0;" parent="1" target="74" edge="1"><mxGeometry x="-1" y="3" relative="1" as="geometry"><mxPoint x="310" y="210" as="sourcePoint"/><mxPoint x="440" y="810" as="targetPoint"/><Array as="points"><mxPoint x="380" y="210"/><mxPoint x="380" y="818"/></Array></mxGeometry></mxCell><mxCell id="133" value="1..*" style="edgeLabel;html=1;align=center;verticalAlign=middle;resizable=0;points=[];" parent="127" vertex="1" connectable="0"><mxGeometry x="0.9532" y="5" relative="1" as="geometry"><mxPoint x="-2" y="-2" as="offset"/></mxGeometry></mxCell><mxCell id="135" value="1" style="endArrow=open;html=1;endSize=12;startArrow=diamondThin;startSize=14;startFill=0;align=left;verticalAlign=bottom;rounded=0;entryX=0;entryY=0.25;entryDx=0;entryDy=0;" parent="1" target="89" edge="1"><mxGeometry x="-1" y="3" relative="1" as="geometry"><mxPoint x="310" y="240" as="sourcePoint"/><mxPoint x="620" y="660" as="targetPoint"/><Array as="points"><mxPoint x="360" y="240"/><mxPoint x="360" y="978"/></Array></mxGeometry></mxCell><mxCell id="136" value="0..*" style="edgeLabel;html=1;align=center;verticalAlign=middle;resizable=0;points=[];" parent="135" vertex="1" connectable="0"><mxGeometry x="0.9783" y="1" relative="1" as="geometry"><mxPoint x="-12" y="-6" as="offset"/></mxGeometry></mxCell><mxCell id="137" value="TextEditor" style="swimlane;fontStyle=1;align=center;verticalAlign=top;childLayout=stackLayout;horizontal=1;startSize=52;horizontalStack=0;resizeParent=1;resizeParentMax=0;resizeLast=0;collapsible=1;marginBottom=0;" parent="1" vertex="1"><mxGeometry x="1260" y="960" width="89" height="30" as="geometry"/></mxCell><mxCell id="138" value="VideoEditor" style="swimlane;fontStyle=1;align=center;verticalAlign=top;childLayout=stackLayout;horizontal=1;startSize=52;horizontalStack=0;resizeParent=1;resizeParentMax=0;resizeLast=0;collapsible=1;marginBottom=0;" parent="1" vertex="1"><mxGeometry x="1360" y="960" width="100" height="30" as="geometry"/></mxCell><mxCell id="139" value="GraphicEditor" style="swimlane;fontStyle=1;align=center;verticalAlign=top;childLayout=stackLayout;horizontal=1;startSize=52;horizontalStack=0;resizeParent=1;resizeParentMax=0;resizeLast=0;collapsible=1;marginBottom=0;" parent="1" vertex="1"><mxGeometry x="1470" y="960" width="100" height="30" as="geometry"/></mxCell><mxCell id="140" value="Extends" style="endArrow=block;endSize=16;endFill=0;html=1;rounded=0;exitX=0.5;exitY=0;exitDx=0;exitDy=0;entryX=0.75;entryY=0;entryDx=0;entryDy=0;" parent="1" source="137" target="95" edge="1"><mxGeometry width="160" relative="1" as="geometry"><mxPoint x="1210" y="980" as="sourcePoint"/><mxPoint x="1370" y="980" as="targetPoint"/><Array as="points"><mxPoint x="1305" y="930"/><mxPoint x="1160" y="930"/></Array></mxGeometry></mxCell><mxCell id="141" value="Extends" style="endArrow=block;endSize=16;endFill=0;html=1;rounded=0;exitX=0.5;exitY=0;exitDx=0;exitDy=0;" parent="1" source="138" edge="1"><mxGeometry width="160" relative="1" as="geometry"><mxPoint x="1280" y="980" as="sourcePoint"/><mxPoint x="1310" y="930" as="targetPoint"/><Array as="points"><mxPoint x="1410" y="930"/></Array></mxGeometry></mxCell><mxCell id="142" value="Extends" style="endArrow=block;endSize=16;endFill=0;html=1;rounded=0;exitX=0.5;exitY=0;exitDx=0;exitDy=0;" parent="1" source="139" edge="1"><mxGeometry x="0.1429" width="160" relative="1" as="geometry"><mxPoint x="1520" y="960" as="sourcePoint"/><mxPoint x="1410" y="930" as="targetPoint"/><Array as="points"><mxPoint x="1520" y="930"/></Array><mxPoint as="offset"/></mxGeometry></mxCell><mxCell id="143" value="AbstractProgram" style="swimlane;fontStyle=3;align=center;verticalAlign=top;childLayout=stackLayout;horizontal=1;startSize=26;horizontalStack=0;resizeParent=1;resizeParentMax=0;resizeLast=0;collapsible=1;marginBottom=0;" parent="1" vertex="1"><mxGeometry x="770" y="960" width="170" height="110" as="geometry"/></mxCell><mxCell id="144" value="# name: String&#10;# data: String" style="text;strokeColor=none;fillColor=none;align=left;verticalAlign=top;spacingLeft=4;spacingRight=4;overflow=hidden;rotatable=0;points=[[0,0.5],[1,0.5]];portConstraint=eastwest;" parent="143" vertex="1"><mxGeometry y="26" width="170" height="44" as="geometry"/></mxCell><mxCell id="145" value="" style="line;strokeWidth=1;fillColor=none;align=left;verticalAlign=middle;spacingTop=-1;spacingLeft=3;spacingRight=3;rotatable=0;labelPosition=right;points=[];portConstraint=eastwest;strokeColor=inherit;" parent="143" vertex="1"><mxGeometry y="70" width="170" height="8" as="geometry"/></mxCell><mxCell id="146" value="+ drawGraphic(): void" style="text;strokeColor=none;fillColor=none;align=left;verticalAlign=top;spacingLeft=4;spacingRight=4;overflow=hidden;rotatable=0;points=[[0,0.5],[1,0.5]];portConstraint=eastwest;" parent="143" vertex="1"><mxGeometry y="78" width="170" height="32" as="geometry"/></mxCell><mxCell id="147" value="Extends" style="endArrow=block;endSize=16;endFill=0;html=1;rounded=0;exitX=0;exitY=0.5;exitDx=0;exitDy=0;entryX=0.998;entryY=0.142;entryDx=0;entryDy=0;entryPerimeter=0;" parent="1" source="95" target="143" edge="1"><mxGeometry width="160" relative="1" as="geometry"><mxPoint x="810" y="1020" as="sourcePoint"/><mxPoint x="970" y="1020" as="targetPoint"/></mxGeometry></mxCell><mxCell id="148" value="Extends" style="endArrow=block;endSize=16;endFill=0;html=1;rounded=0;exitX=0;exitY=0.5;exitDx=0;exitDy=0;entryX=1.006;entryY=0.642;entryDx=0;entryDy=0;entryPerimeter=0;" parent="1" source="98" target="144" edge="1"><mxGeometry width="160" relative="1" as="geometry"><mxPoint x="1050" y="985" as="sourcePoint"/><mxPoint x="949.6600000000001" y="985.6199999999999" as="targetPoint"/></mxGeometry></mxCell><mxCell id="149" value="Extends" style="endArrow=block;endSize=16;endFill=0;html=1;rounded=0;exitX=0;exitY=0.5;exitDx=0;exitDy=0;" parent="1" source="100" target="146" edge="1"><mxGeometry width="160" relative="1" as="geometry"><mxPoint x="1050" y="1025" as="sourcePoint"/><mxPoint x="951.02" y="1024.248" as="targetPoint"/></mxGeometry></mxCell></root></mxGraphModel></diagram></mxfile>